<svg xmlns="http://www.w3.org/2000/svg" viewBox="180 45 640 170" role="img" aria-labelledby="title desc">
  <title id="title">Eyes Closed 04G mark - black</title>
  <desc id="desc">The Eyes Closed crescent and particle mark in black for use on light backgrounds.</desc>
  <defs>
    <style>.ink{fill:#050806}.line{fill:none;stroke:#050806;stroke-opacity:.18;stroke-width:.8}.dotline{fill:none;stroke-linecap:round;stroke-dasharray:0 7.5}</style>
    <linearGradient id="arc04gBlack" x1="0" x2="1"><stop offset="0" stop-color="#050806" stop-opacity=".82"/><stop offset=".18" stop-color="#050806" stop-opacity=".98"/><stop offset=".68" stop-color="#050806" stop-opacity=".96"/><stop offset="1" stop-color="#050806" stop-opacity=".7"/></linearGradient>
  </defs>
  <path d="M206 137 C316 222 504 221 614 139 C500 195 322 195 206 137 Z" fill="url(#arc04gBlack)"/>
  <path d="M589 158 C626 127 677 98 751 63" class="line"/>
  <path d="M588 159 C630 134 690 105 768 73" class="dotline" stroke="#050806" stroke-opacity=".72" stroke-width="2.4"/>
  <path d="M594 169 C648 160 704 143 786 105" class="dotline" stroke="#050806" stroke-opacity=".28" stroke-width="1.55"/>
  <path d="M605 178 C662 182 728 174 796 145" class="dotline" stroke="#050806" stroke-opacity=".18" stroke-width="1.25"/>
  <path d="M621 151 C668 119 704 97 749 82" class="dotline" stroke="#050806" stroke-opacity=".36" stroke-width="1.25"/>
  <g opacity=".96"><circle class="ink" cx="617" cy="147" r="1.5"/><circle class="ink" cx="631" cy="138" r="1.8"/><circle class="ink" cx="644" cy="130" r="1.4"/><circle class="ink" cx="659" cy="121" r="2.5"/><circle class="ink" cx="674" cy="113" r="1.4"/><circle class="ink" cx="692" cy="102" r="2.1"/><circle class="ink" cx="713" cy="91" r="1.5"/><circle class="ink" cx="733" cy="80" r="2.4"/><circle class="ink" cx="759" cy="64" r="2"/><circle class="ink" cx="650" cy="151" r="1.1"/><circle class="ink" cx="672" cy="142" r="1.2"/><circle class="ink" cx="699" cy="130" r="1.4"/><circle class="ink" cx="726" cy="116" r="1.1"/><circle class="ink" cx="683" cy="158" r="1"/><circle class="ink" cx="720" cy="151" r="1.2"/><circle class="ink" cx="770" cy="139" r="1.1"/></g>
</svg>
